<?xml version="1.0" encoding="UTF-8"?>
<svg width="60px" height="60px" viewBox="0 0 128 128" version="1.1" xmlns="http://www.w3.org/2000/svg" xmlns:xlink="http://www.w3.org/1999/xlink">
    <g id="Page-1" stroke="none" stroke-width="1" fill="none" fill-rule="evenodd">
        <g id="git" fill="#F34F29" fill-rule="nonzero">
            <path d="M124.737,58.378 L69.621,3.264 C66.449,0.09 61.301,0.09 58.124,3.264 L46.68,14.71 L61.198,29.228 C64.573,28.089 68.441,28.853 71.13,31.542 C73.833,34.248 74.591,38.149 73.424,41.535 L87.416,55.528 C90.801,54.361 94.708,55.115 97.41,57.823 C101.19,61.6 101.19,67.723 97.41,71.502 C93.63,75.282 87.509,75.282 83.727,71.502 C80.885,68.658 80.182,64.483 81.622,60.981 L68.574,47.933 L68.572,82.274 C69.494,82.729 70.363,83.337 71.131,84.102 C74.909,87.879 74.909,94 71.131,97.785 C67.352,101.562 61.227,101.562 57.452,97.785 C53.674,94.001 53.674,87.88 57.452,84.102 C58.386,83.169 59.466,82.464 60.619,81.992 L60.619,47.333 C59.466,46.861 58.388,46.161 57.452,45.222 C54.59,42.362 53.901,38.162 55.369,34.646 L41.056,20.333 L3.264,58.123 C0.089,61.3 0.089,66.448 3.264,69.623 L58.381,124.737 C61.555,127.911 66.701,127.911 69.88,124.737 L124.738,69.879 C127.912,66.703 127.912,61.552 124.737,58.378 Z" id="Path"></path>
        </g>
    </g>
</svg>