<?xml version="1.0" encoding="UTF-8"?>
<svg width="60px" height="60px" viewBox="0 0 270 264" version="1.1" xmlns="http://www.w3.org/2000/svg" xmlns:xlink="http://www.w3.org/1999/xlink">
    <defs>
        <radialGradient cx="39.8681818%" cy="33.3130841%" fx="39.8681818%" fy="33.3130841%" r="67.3686364%" gradientTransform="translate(0.398682,0.333131),scale(0.967742,1.000000),translate(-0.398682,-0.333131)" id="radialGradient-1">
            <stop stop-color="#360100" stop-opacity="0.85" offset="0%"></stop>
            <stop stop-color="#360100" offset="77%"></stop>
            <stop stop-color="#360100" offset="100%"></stop>
        </radialGradient>
    </defs>
    <g id="Page-1" stroke="none" stroke-width="1" fill="none" fill-rule="evenodd">
        <g id="illustrator-logo@logotyp.us">
            <rect id="Rectangle" fill="#F37021" x="0" y="0.375" width="270" height="263"></rect>
            <polygon id="Path" fill="url(#radialGradient-1)" points="11 12 259 12 259 252 11 252"></polygon>
            <g id="Group" transform="translate(65.000000, 56.375000)" fill="#F37021">
                <path d="M28.65625,93.0625 L19.74625,126.8125 C19.56625,127.74625 19.195,127.9375 18.08125,127.9375 L1.555,127.9375 C0.43,127.9375 0.26125,127.56625 0.43,126.2725 L32.36875,14.39125 C32.93125,12.34375 33.3025,10.58875 33.49375,5.02 C33.49375,4.2775 33.865,3.895 34.4275,3.895 L57.99625,3.895 C58.73875,3.895 59.12125,4.075 59.30125,5.02 L95.12125,126.4525 C95.3125,127.375 95.12125,127.9375 94.19875,127.9375 L75.625,127.9375 C74.69125,127.9375 74.14,127.72375 73.94875,126.98125 L64.6675,93.0625 L28.65625,93.0625 Z M60.0325,74.78125 C56.87125,62.33875 49.44625,35.08 46.6675,21.90625 L46.47625,21.90625 C44.125,35.125 38.12875,57.3325 33.4825,74.78125 L60.0325,74.78125 Z M110.6575,12.25375 C110.6575,5.02 115.675,0.745 122.16625,0.745 C129.04,0.745 133.675,5.39125 133.675,12.25375 C133.675,19.67875 128.84875,23.7625 121.98625,23.7625 C115.2925,23.7625 110.64625,19.67875 110.64625,12.25375 L110.6575,12.25375 Z M111.9175,37.825 C111.9175,36.9025 112.28875,36.53125 113.2225,36.53125 L130.8625,36.53125 C131.785,36.53125 132.15625,36.9025 132.15625,37.825 L132.15625,126.6325 C132.15625,127.56625 131.97625,127.9375 130.8625,127.9375 L113.39125,127.9375 C112.26625,127.9375 111.90625,127.375 111.90625,126.4525 L111.9175,37.825 Z" id="Shape"></path>
            </g>
        </g>
    </g>
</svg>