<?xml version="1.0" encoding="UTF-8"?>
<svg width="60px" height="60px" viewBox="0 0 44 42" version="1.1" xmlns="http://www.w3.org/2000/svg" xmlns:xlink="http://www.w3.org/1999/xlink">
    <g id="Page-1" stroke="none" stroke-width="1" fill="none" fill-rule="evenodd">
        <g id="icons8-xcode" fill-rule="nonzero">
            <polygon id="Path" fill="#03A9F4" points="42 35 4.6 40.9 0 10.8 37.2 5.1"></polygon>
            <polygon id="Path" fill="#039BE5" points="37.2 5.1 42 35 4.6 40.9 4.2 38"></polygon>
            <polygon id="Path" fill="#29B6F6" points="0 10.8 2.4 26.3 20.2 7.7"></polygon>
            <path d="M6.3,38.6 L2.3,12.4 L35.6,7.3 L39.8,33.3 L6.3,38.6 Z M4.6,14.1 L8,36.3 L37.5,31.6 L34,9.5 L4.6,14.1 Z" id="Shape" fill="#FFFFFF"></path>
            <polygon id="Path" fill="#FFFFFF" points="9.1 24 9.5 27 34 23.1 33.5 20.1"></polygon>
            <path d="M14.6,31.3 L11.5,35 L11.9,30.2 C11.9,30.1 11.9,30 12,29.9 L17.2,17.2 C17.4,16.7 18,16.4 18.5,16.7 L19.4,17.1 C19.9,17.3 20.2,17.9 19.9,18.4 L14.8,31 C14.7,31.1 14.7,31.2 14.6,31.3 Z M28.7,26.2 L19.4,15.3 C19,14.9 19.1,14.2 19.5,13.9 L20.3,13.3 C20.7,12.9 21.4,13 21.7,13.4 L31,24.3 L28.7,26.2 Z M31.6,25 C31.6,25 34,25.7 34,28.5 C34,30.3 33.5,31 33.5,31 C33.5,31 33.1,29.8 31.2,29.1 C28.6,28.2 28.7,26.2 28.7,26.2 L30.9,25.7 L31.6,25 Z" id="Shape" fill="#FFFFFF"></path>
            <polygon id="Path" fill="#03A9F4" points="18.4 22 17.2 24.9 19.1 23.1 19.5 22"></polygon>
            <polygon id="Path" fill="#039BE5" points="17.5 27 19.1 23.1 17.2 24.9 16.4 27"></polygon>
            <polygon id="Path" fill="#03A9F4" points="13.2 27 15.2 22 14.1 22 12.1 27"></polygon>
            <polygon id="Path" fill="#039BE5" points="31.9 23.8 28.6 20 27.3 20 30.8 24 31 24.3 28.7 26.2 27.4 24.7 27.4 24.7 24.2 21 22.9 21 25.9 24.5 27.9 26.9 28.6 27.6 29.3 27 31.6 25 32.4 24.4"></polygon>
            <polygon id="Path" fill="#03A9F4" points="15 17.9 15 19 20 21.1 20 20"></polygon>
            <polygon id="Path" fill="#039BE5" points="16 30.6 12.9 29.3 12.1 30.1 16 31.7"></polygon>
            <polygon id="Path" fill="#03A9F4" points="11 28.5 11 29.6 12.1 30.1 12.9 29.3"></polygon>
            <path d="M35.9,9.2 C35.9,9.2 35.9,9.3 35.9,9.3 L36.6,13.5 L37.9,9.9 C37.9,9.8 38,9.7 38,9.6 L37.6,7.3 C36.8,7.8 36.1,8.6 35.9,9.2 Z M31.9,29.4 C31.7,29.3 31.5,29.2 31.2,29.1 C30.7,28.9 30.4,28.8 30.1,28.6 L28.8,33 L31,32.7 L31.9,29.4 Z M28.2,35.1 L27.7,37.3 L29.8,36.9 L30.4,34.8 L28.2,35.1 Z M32.8,18.8 L32.8,18.9 L32.4,20.3 L33.5,20.1 L33.9,22.3 L34.7,19.4 L35.2,17.8 L34.5,13.4 L33.4,16.9 L32.8,18.8 Z" id="Shape" fill="#0277BD"></path>
            <path d="M34.5,13.4 L35.2,17.8 L36.5,13.5 L35.8,9.3 C35.3,10.7 34.8,12.1 34.7,12.3 L34.5,13.4 Z M28.8,33 L28.2,35.1 L30.4,34.8 L31,32.7 L28.8,33 Z M33.9,22.3 L33.5,20.1 L32.4,20.3 L31.5,23.5 L33.6,23.2 L33.9,22.3 Z M31.6,25 L31,25.3 L30.1,28.6 C30.4,28.8 30.8,29 31.2,29.1 C31.5,29.2 31.7,29.3 31.9,29.4 L32.9,25.8 C32.3,25.2 31.6,25 31.6,25 Z" id="Shape" fill="#90A4AE"></path>
            <path d="M32.9,25.8 L33.6,23.1 L31.4,23.4 L30.8,25.6 L31.6,24.9 C31.6,25 32.3,25.2 32.9,25.8 Z" id="Path" fill="#0277BD"></path>
            <path d="M31.6,25 L30.8,25.7 L30,28.6 C30.3,28.8 30.7,29 31.1,29.1 C31.4,29.2 31.6,29.3 31.8,29.4 L32.8,25.8 C32.3,25.2 31.6,25 31.6,25 Z" id="Path" fill="#90A4AE"></path>
            <path d="M34,1.5 C28,1.5 24,3 24,3 L24,3.5 C32.6,3.5 33.7,6.7 34,7.5 L34,1.5 Z" id="Path" fill="#78909C"></path>
            <path d="M42,3.3 C41.8,3.7 41.6,4 41,4 C39.9,4 39,2.4 39,2.4 C37.3,1.3 34,0 31,0 C25,0 23,1.5 23,1.5 L23,2 C27.2,2 28.8,2.4 30.3,3.5 C32.7,5.3 32.5,9.4 31.6,12.6 L29.8,18 L32.7,18.9 L34.8,12.3 C34.9,12.2 35.4,10.7 35.9,9.2 C36.2,8.4 37,7.4 38,7.1 C38.6,6.9 39.4,6.8 39.9,7.2 C40.4,7.6 40.4,7.9 40.3,8.3 L40.3,8.3 L42.3,8.9 L44,4 L42,3.3 Z" id="Path" fill="#D7DEE2"></path>
            <path d="M41,4 C39.9,4 39,2.4 39,2.4 L38.2,4.9 C37.9,6 36.7,6.5 35.7,6.2 L31.4,4.8 C31.9,5.7 32.1,6.7 32.2,7.9 L36,9.1 C36.3,8.5 36.8,7.8 37.5,7.4 L37.5,7.4 C37.7,7.3 37.9,7.2 38.1,7.1 C38.7,6.9 39.5,6.8 40,7.2 C40.5,7.6 40.5,7.9 40.4,8.3 L40.4,8.3 L42,3.3 C41.8,3.7 41.6,4 41,4 Z" id="Path" fill="#90A4AE"></path>
            <path d="M29.8,18 L21.1,38.3 C20.6,39.6 21.3,41.2 22.7,41.6 L23.6,41.9 C25,42.3 26.4,41.5 26.7,40.5 L32.7,18.9 L29.8,18 Z" id="Path" fill="#424242"></path>
        </g>
    </g>
</svg>